<svg xmlns="http://www.w3.org/2000/svg" xmlns:xlink="http://www.w3.org/1999/xlink" width="100" zoomAndPan="magnify" viewBox="0 0 75 74.999997" height="100" preserveAspectRatio="xMidYMid meet" version="1.0"><defs><g/><clipPath id="id1"><path d="M 19.832031 20.378906 L 30.332031 20.378906 L 30.332031 34.628906 L 19.832031 34.628906 Z M 19.832031 20.378906 " clip-rule="nonzero"/></clipPath></defs><path fill="#000000" d="M 9.316406 37.125 L 10.070312 37.125 L 10.070312 37.875 L 9.316406 37.875 M 10.828125 37.125 L 11.582031 37.125 L 11.582031 37.875 L 10.828125 37.875 M 12.335938 37.125 L 13.089844 37.125 L 13.089844 37.875 L 12.335938 37.875 M 13.84375 37.125 L 14.597656 37.125 L 14.597656 37.875 L 13.84375 37.875 M 15.351562 37.125 L 16.105469 37.125 L 16.105469 37.875 L 15.351562 37.875 M 16.859375 37.125 L 17.613281 37.125 L 17.613281 37.875 L 16.859375 37.875 M 18.367188 37.125 L 19.121094 37.125 L 19.121094 37.875 L 18.367188 37.875 M 19.878906 37.125 L 20.632812 37.125 L 20.632812 37.875 L 19.878906 37.875 M 21.386719 37.125 L 22.140625 37.125 L 22.140625 37.875 L 21.386719 37.875 M 22.894531 37.125 L 23.648438 37.125 L 23.648438 37.875 L 22.894531 37.875 M 24.402344 37.125 L 25.15625 37.125 L 25.15625 37.875 L 24.402344 37.875 M 25.910156 37.125 L 26.664062 37.125 L 26.664062 37.875 L 25.910156 37.875 M 27.417969 37.125 L 28.171875 37.125 L 28.171875 37.875 L 27.417969 37.875 M 28.929688 37.125 L 29.683594 37.125 L 29.683594 37.875 L 28.929688 37.875 M 30.4375 37.125 L 31.191406 37.125 L 31.191406 37.875 L 30.4375 37.875 M 31.945312 37.125 L 32.699219 37.125 L 32.699219 37.875 L 31.945312 37.875 M 33.453125 37.125 L 34.207031 37.125 L 34.207031 37.875 L 33.453125 37.875 M 34.960938 37.125 L 35.714844 37.125 L 35.714844 37.875 L 34.960938 37.875 M 36.46875 37.125 L 37.222656 37.125 L 37.222656 37.875 L 36.46875 37.875 M 37.980469 37.125 L 38.734375 37.125 L 38.734375 37.875 L 37.980469 37.875 M 39.488281 37.125 L 40.242188 37.125 L 40.242188 37.875 L 39.488281 37.875 M 40.996094 37.125 L 41.75 37.125 L 41.75 37.875 L 40.996094 37.875 M 42.503906 37.125 L 43.257812 37.125 L 43.257812 37.875 L 42.503906 37.875 M 44.011719 37.125 L 44.765625 37.125 L 44.765625 37.875 L 44.011719 37.875 M 45.519531 37.125 L 46.273438 37.125 L 46.273438 37.875 L 45.519531 37.875 M 47.03125 37.125 L 47.785156 37.125 L 47.785156 37.875 L 47.03125 37.875 M 48.539062 37.125 L 49.292969 37.125 L 49.292969 37.875 L 48.539062 37.875 M 50.046875 37.125 L 50.800781 37.125 L 50.800781 37.875 L 50.046875 37.875 M 51.554688 37.125 L 52.308594 37.125 L 52.308594 37.875 L 51.554688 37.875 M 53.0625 37.125 L 53.816406 37.125 L 53.816406 37.875 L 53.0625 37.875 M 54.570312 37.125 L 55.324219 37.125 L 55.324219 37.875 L 54.570312 37.875 M 56.082031 37.125 L 56.835938 37.125 L 56.835938 37.875 L 56.082031 37.875 M 57.589844 37.125 L 58.34375 37.125 L 58.34375 37.875 L 57.589844 37.875 M 59.097656 37.125 L 59.851562 37.125 L 59.851562 37.875 L 59.097656 37.875 M 60.605469 37.125 L 61.359375 37.125 L 61.359375 37.875 L 60.605469 37.875 M 62.113281 37.125 L 62.867188 37.125 L 62.867188 37.875 L 62.113281 37.875 M 63.621094 37.125 L 64.375 37.125 L 64.375 37.875 L 63.621094 37.875 " fill-opacity="1" fill-rule="nonzero"/><path stroke-linecap="butt" transform="matrix(0.75423, 0, 0, 0.75, 67.828179, 37.499996)" fill="none" stroke-linejoin="round" d="M -3.501157 -1.499995 L -0.502446 -1.499995 L -0.502446 1.500006 L -3.501157 1.500006 Z M -3.501157 -1.499995 " stroke="#000000" stroke-width="1" stroke-opacity="1" stroke-miterlimit="4"/><g clip-path="url(#id1)"><path fill="#000000" d="M 29.015625 25.128906 L 28.359375 25.128906 L 28.359375 23.773438 C 28.359375 21.902344 26.890625 20.378906 25.082031 20.378906 C 23.277344 20.378906 21.808594 21.902344 21.808594 23.773438 L 21.808594 25.128906 L 21.152344 25.128906 C 20.429688 25.128906 19.84375 25.738281 19.84375 26.488281 L 19.84375 33.273438 C 19.84375 34.023438 20.429688 34.628906 21.152344 34.628906 L 29.015625 34.628906 C 29.738281 34.628906 30.324219 34.023438 30.324219 33.273438 L 30.324219 26.488281 C 30.324219 25.738281 29.738281 25.128906 29.015625 25.128906 Z M 25.082031 21.671875 C 26.203125 21.671875 27.113281 22.613281 27.113281 23.773438 L 27.113281 25.128906 L 23.117188 25.128906 L 23.117188 23.773438 L 23.054688 23.773438 C 23.054688 22.613281 23.964844 21.671875 25.082031 21.671875 Z M 29.015625 33.273438 L 21.152344 33.273438 L 21.152344 26.488281 L 29.015625 26.488281 Z M 25.082031 31.238281 C 25.808594 31.238281 26.394531 30.628906 26.394531 29.878906 C 26.394531 29.132812 25.808594 28.523438 25.082031 28.523438 C 24.359375 28.523438 23.773438 29.132812 23.773438 29.878906 C 23.773438 30.628906 24.359375 31.238281 25.082031 31.238281 Z M 25.082031 31.238281 " fill-opacity="1" fill-rule="nonzero"/></g><g fill="#000000" fill-opacity="1"><g transform="translate(8.181662, 33.800018)"><g><path d="M 10.421875 0 L 6.9375 0 L 3.34375 -6.921875 L 3.28125 -6.921875 C 3.375 -5.835938 3.421875 -5.003906 3.421875 -4.421875 L 3.421875 0 L 1.0625 0 L 1.0625 -9.828125 L 4.53125 -9.828125 L 8.109375 -3 L 8.140625 -3 C 8.078125 -3.988281 8.046875 -4.785156 8.046875 -5.390625 L 8.046875 -9.828125 L 10.421875 -9.828125 Z M 10.421875 0 "/></g></g></g><g fill="#000000" fill-opacity="1"><g transform="translate(8.484903, 50.193887)"><g><path d="M 3.671875 0 L 1.0625 0 L 1.0625 -9.828125 L 6.875 -9.828125 L 6.875 -7.703125 L 3.671875 -7.703125 L 3.671875 -5.828125 L 6.625 -5.828125 L 6.625 -3.6875 L 3.671875 -3.6875 Z M 3.671875 0 "/></g></g></g><g fill="#000000" fill-opacity="1"><g transform="translate(15.908832, 50.193887)"><g><path d="M 7.09375 0 L 6.609375 -1.84375 L 3.421875 -1.84375 L 2.921875 0 L 0 0 L 3.203125 -9.859375 L 6.75 -9.859375 L 10 0 Z M 6.0625 -4.015625 L 5.625 -5.625 C 5.53125 -5.988281 5.410156 -6.453125 5.265625 -7.015625 C 5.128906 -7.585938 5.039062 -8 5 -8.25 C 4.957031 -8.019531 4.875 -7.640625 4.75 -7.109375 C 4.632812 -6.585938 4.375 -5.554688 3.96875 -4.015625 Z M 6.0625 -4.015625 "/></g></g></g><g fill="#000000" fill-opacity="1"><g transform="translate(25.908271, 50.193887)"><g><path d="M 7.484375 -2.984375 C 7.484375 -2.367188 7.328125 -1.828125 7.015625 -1.359375 C 6.710938 -0.890625 6.269531 -0.519531 5.6875 -0.25 C 5.101562 0.0078125 4.421875 0.140625 3.640625 0.140625 C 2.984375 0.140625 2.429688 0.09375 1.984375 0 C 1.546875 -0.09375 1.085938 -0.253906 0.609375 -0.484375 L 0.609375 -2.84375 C 1.109375 -2.582031 1.628906 -2.378906 2.171875 -2.234375 C 2.722656 -2.085938 3.226562 -2.015625 3.6875 -2.015625 C 4.082031 -2.015625 4.367188 -2.082031 4.546875 -2.21875 C 4.734375 -2.363281 4.828125 -2.539062 4.828125 -2.75 C 4.828125 -2.882812 4.789062 -3.003906 4.71875 -3.109375 C 4.644531 -3.210938 4.523438 -3.3125 4.359375 -3.40625 C 4.203125 -3.507812 3.769531 -3.722656 3.0625 -4.046875 C 2.414062 -4.335938 1.929688 -4.617188 1.609375 -4.890625 C 1.296875 -5.160156 1.0625 -5.472656 0.90625 -5.828125 C 0.75 -6.179688 0.671875 -6.601562 0.671875 -7.09375 C 0.671875 -8 1 -8.703125 1.65625 -9.203125 C 2.3125 -9.710938 3.21875 -9.96875 4.375 -9.96875 C 5.394531 -9.96875 6.429688 -9.734375 7.484375 -9.265625 L 6.671875 -7.21875 C 5.753906 -7.632812 4.960938 -7.84375 4.296875 -7.84375 C 3.953125 -7.84375 3.703125 -7.78125 3.546875 -7.65625 C 3.390625 -7.539062 3.3125 -7.394531 3.3125 -7.21875 C 3.3125 -7.019531 3.410156 -6.84375 3.609375 -6.6875 C 3.804688 -6.539062 4.347656 -6.265625 5.234375 -5.859375 C 6.078125 -5.484375 6.660156 -5.078125 6.984375 -4.640625 C 7.316406 -4.203125 7.484375 -3.648438 7.484375 -2.984375 Z M 7.484375 -2.984375 "/></g></g></g><g fill="#000000" fill-opacity="1"><g transform="translate(33.856716, 50.193887)"><g><path d="M 5.390625 0 L 2.75 0 L 2.75 -7.65625 L 0.34375 -7.65625 L 0.34375 -9.828125 L 7.796875 -9.828125 L 7.796875 -7.65625 L 5.390625 -7.65625 Z M 5.390625 0 "/></g></g></g><g fill="#000000" fill-opacity="1"><g transform="translate(32.164665, 33.800018)"><g><path d="M 5.390625 0 L 2.75 0 L 2.75 -7.65625 L 0.34375 -7.65625 L 0.34375 -9.828125 L 7.796875 -9.828125 L 7.796875 -7.65625 L 5.390625 -7.65625 Z M 5.390625 0 "/></g></g></g><g fill="#000000" fill-opacity="1"><g transform="translate(40.301398, 33.800018)"><g/></g></g><g fill="#000000" fill-opacity="1"><g transform="translate(43.87887, 33.800018)"><g><path d="M 7.484375 -2.984375 C 7.484375 -2.367188 7.328125 -1.828125 7.015625 -1.359375 C 6.710938 -0.890625 6.269531 -0.519531 5.6875 -0.25 C 5.101562 0.0078125 4.421875 0.140625 3.640625 0.140625 C 2.984375 0.140625 2.429688 0.09375 1.984375 0 C 1.546875 -0.09375 1.085938 -0.253906 0.609375 -0.484375 L 0.609375 -2.84375 C 1.109375 -2.582031 1.628906 -2.378906 2.171875 -2.234375 C 2.722656 -2.085938 3.226562 -2.015625 3.6875 -2.015625 C 4.082031 -2.015625 4.367188 -2.082031 4.546875 -2.21875 C 4.734375 -2.363281 4.828125 -2.539062 4.828125 -2.75 C 4.828125 -2.882812 4.789062 -3.003906 4.71875 -3.109375 C 4.644531 -3.210938 4.523438 -3.3125 4.359375 -3.40625 C 4.203125 -3.507812 3.769531 -3.722656 3.0625 -4.046875 C 2.414062 -4.335938 1.929688 -4.617188 1.609375 -4.890625 C 1.296875 -5.160156 1.0625 -5.472656 0.90625 -5.828125 C 0.75 -6.179688 0.671875 -6.601562 0.671875 -7.09375 C 0.671875 -8 1 -8.703125 1.65625 -9.203125 C 2.3125 -9.710938 3.21875 -9.96875 4.375 -9.96875 C 5.394531 -9.96875 6.429688 -9.734375 7.484375 -9.265625 L 6.671875 -7.21875 C 5.753906 -7.632812 4.960938 -7.84375 4.296875 -7.84375 C 3.953125 -7.84375 3.703125 -7.78125 3.546875 -7.65625 C 3.390625 -7.539062 3.3125 -7.394531 3.3125 -7.21875 C 3.3125 -7.019531 3.410156 -6.84375 3.609375 -6.6875 C 3.804688 -6.539062 4.347656 -6.265625 5.234375 -5.859375 C 6.078125 -5.484375 6.660156 -5.078125 6.984375 -4.640625 C 7.316406 -4.203125 7.484375 -3.648438 7.484375 -2.984375 Z M 7.484375 -2.984375 "/></g></g></g><g fill="#000000" fill-opacity="1"><g transform="translate(51.827315, 33.800018)"><g><path d="M 10.25 -4.921875 C 10.25 -3.273438 9.84375 -2.019531 9.03125 -1.15625 C 8.226562 -0.289062 7.046875 0.140625 5.484375 0.140625 C 3.941406 0.140625 2.757812 -0.289062 1.9375 -1.15625 C 1.113281 -2.019531 0.703125 -3.28125 0.703125 -4.9375 C 0.703125 -6.570312 1.109375 -7.820312 1.921875 -8.6875 C 2.742188 -9.550781 3.929688 -9.984375 5.484375 -9.984375 C 7.054688 -9.984375 8.242188 -9.550781 9.046875 -8.6875 C 9.847656 -7.832031 10.25 -6.578125 10.25 -4.921875 Z M 3.5 -4.921875 C 3.5 -3.023438 4.160156 -2.078125 5.484375 -2.078125 C 6.148438 -2.078125 6.644531 -2.304688 6.96875 -2.765625 C 7.289062 -3.234375 7.453125 -3.953125 7.453125 -4.921875 C 7.453125 -5.910156 7.285156 -6.632812 6.953125 -7.09375 C 6.628906 -7.5625 6.140625 -7.796875 5.484375 -7.796875 C 4.160156 -7.796875 3.5 -6.835938 3.5 -4.921875 Z M 3.5 -4.921875 "/></g></g></g><path fill="#000000" d="M 2.984375 53.519531 L 3.738281 53.519531 L 3.738281 54.269531 L 2.984375 54.269531 M 4.492188 53.519531 L 5.246094 53.519531 L 5.246094 54.269531 L 4.492188 54.269531 M 6 53.519531 L 6.753906 53.519531 L 6.753906 54.269531 L 6 54.269531 M 7.507812 53.519531 L 8.261719 53.519531 L 8.261719 54.269531 L 7.507812 54.269531 M 9.015625 53.519531 L 9.769531 53.519531 L 9.769531 54.269531 L 9.015625 54.269531 M 10.523438 53.519531 L 11.277344 53.519531 L 11.277344 54.269531 L 10.523438 54.269531 M 12.035156 53.519531 L 12.789062 53.519531 L 12.789062 54.269531 L 12.035156 54.269531 M 13.542969 53.519531 L 14.296875 53.519531 L 14.296875 54.269531 L 13.542969 54.269531 M 15.050781 53.519531 L 15.804688 53.519531 L 15.804688 54.269531 L 15.050781 54.269531 M 16.558594 53.519531 L 17.3125 53.519531 L 17.3125 54.269531 L 16.558594 54.269531 M 18.066406 53.519531 L 18.820312 53.519531 L 18.820312 54.269531 L 18.066406 54.269531 M 19.574219 53.519531 L 20.328125 53.519531 L 20.328125 54.269531 L 19.574219 54.269531 M 21.082031 53.519531 L 21.835938 53.519531 L 21.835938 54.269531 L 21.082031 54.269531 M 22.59375 53.519531 L 23.347656 53.519531 L 23.347656 54.269531 L 22.59375 54.269531 M 24.101562 53.519531 L 24.855469 53.519531 L 24.855469 54.269531 L 24.101562 54.269531 M 25.609375 53.519531 L 26.363281 53.519531 L 26.363281 54.269531 L 25.609375 54.269531 M 27.117188 53.519531 L 27.871094 53.519531 L 27.871094 54.269531 L 27.117188 54.269531 M 28.625 53.519531 L 29.378906 53.519531 L 29.378906 54.269531 L 28.625 54.269531 M 30.132812 53.519531 L 30.886719 53.519531 L 30.886719 54.269531 L 30.132812 54.269531 M 31.640625 53.519531 L 32.398438 53.519531 L 32.398438 54.269531 L 31.640625 54.269531 M 33.152344 53.519531 L 33.90625 53.519531 L 33.90625 54.269531 L 33.152344 54.269531 M 34.660156 53.519531 L 35.414062 53.519531 L 35.414062 54.269531 L 34.660156 54.269531 M 36.167969 53.519531 L 36.921875 53.519531 L 36.921875 54.269531 L 36.167969 54.269531 M 37.675781 53.519531 L 38.429688 53.519531 L 38.429688 54.269531 L 37.675781 54.269531 M 39.183594 53.519531 L 39.9375 53.519531 L 39.9375 54.269531 L 39.183594 54.269531 M 40.691406 53.519531 L 41.445312 53.519531 L 41.445312 54.269531 L 40.691406 54.269531 M 42.203125 53.519531 L 42.957031 53.519531 L 42.957031 54.269531 L 42.203125 54.269531 M 43.710938 53.519531 L 44.464844 53.519531 L 44.464844 54.269531 L 43.710938 54.269531 M 45.21875 53.519531 L 45.972656 53.519531 L 45.972656 54.269531 L 45.21875 54.269531 M 46.726562 53.519531 L 47.480469 53.519531 L 47.480469 54.269531 L 46.726562 54.269531 M 48.234375 53.519531 L 48.988281 53.519531 L 48.988281 54.269531 L 48.234375 54.269531 M 49.742188 53.519531 L 50.496094 53.519531 L 50.496094 54.269531 L 49.742188 54.269531 M 51.25 53.519531 L 52.003906 53.519531 L 52.003906 54.269531 L 51.25 54.269531 M 52.761719 53.519531 L 53.515625 53.519531 L 53.515625 54.269531 L 52.761719 54.269531 M 54.269531 53.519531 L 55.023438 53.519531 L 55.023438 54.269531 L 54.269531 54.269531 M 55.777344 53.519531 L 56.53125 53.519531 L 56.53125 54.269531 L 55.777344 54.269531 M 57.285156 53.519531 L 58.039062 53.519531 L 58.039062 54.269531 L 57.285156 54.269531 M 58.792969 53.519531 L 59.546875 53.519531 L 59.546875 54.269531 L 58.792969 54.269531 M 60.300781 53.519531 L 61.054688 53.519531 L 61.054688 54.269531 L 60.300781 54.269531 M 61.808594 53.519531 L 62.566406 53.519531 L 62.566406 54.269531 L 61.808594 54.269531 M 63.320312 53.519531 L 64.074219 53.519531 L 64.074219 54.269531 L 63.320312 54.269531 M 64.828125 53.519531 L 65.582031 53.519531 L 65.582031 54.269531 L 64.828125 54.269531 M 66.335938 53.519531 L 67.089844 53.519531 L 67.089844 54.269531 L 66.335938 54.269531 " fill-opacity="1" fill-rule="nonzero"/><path stroke-linecap="round" transform="matrix(0.754199, 0, 0, 0.75, 2.6058, 53.893864)" fill="none" stroke-linejoin="round" d="M 2.50118 -1.499111 L 0.501956 0.000889402 L 2.50118 1.50089 " stroke="#000000" stroke-width="1" stroke-opacity="1" stroke-miterlimit="4"/><path fill="#000000" d="M 67.484375 52.394531 C 67.589844 52.394531 67.679688 52.429688 67.753906 52.503906 C 67.828125 52.578125 67.863281 52.664062 67.863281 52.769531 L 67.863281 55.019531 C 67.863281 55.121094 67.828125 55.210938 67.753906 55.285156 C 67.679688 55.355469 67.589844 55.394531 67.484375 55.394531 C 67.382812 55.394531 67.292969 55.355469 67.21875 55.285156 C 67.144531 55.210938 67.109375 55.121094 67.109375 55.019531 L 67.109375 52.769531 C 67.109375 52.664062 67.144531 52.578125 67.21875 52.503906 C 67.292969 52.429688 67.382812 52.394531 67.484375 52.394531 Z M 67.484375 52.394531 " fill-opacity="1" fill-rule="nonzero"/></svg>
