<svg width="1171" height="1278" viewBox="0 0 1171 1278" fill="none" xmlns="http://www.w3.org/2000/svg">
<path fill-rule="evenodd" clip-rule="evenodd" d="M646.159 515.696C699.815 511.854 773.379 522.49 788.898 583.669C793.711 605.932 803.194 615.703 819.126 630.263C920.254 759.699 567.417 781.455 549.279 655.238C511.067 669.155 469.471 672.102 431.236 686.169C410.499 693.829 391.695 705.917 373.676 718.555C300.197 770.743 227.758 824.422 154.541 876.985C182.874 890.032 236.742 939.846 214.792 973.32C209.678 979.84 202.088 984.335 195.374 989.101L191.834 991.629C184.217 997.087 171.396 1006.39 164.306 1011.45L162.998 1012.4C162.485 1012.77 161.907 1013.19 161.385 1013.56C212.515 1088.31 272.354 1157.29 338.73 1218.87C344.382 1224.12 342.067 1235.87 333.887 1237.24L324.141 1238.67C292.675 1243.25 260.61 1247.38 228.901 1244.89C198.018 1241.53 179.408 1214.19 158.296 1194.39C116.137 1151.3 76.8916 1105.33 41.1456 1056.77L40.4013 1055.75C29.276 1040.54 14.5093 1025.01 13.4286 1005.38C11.4576 999.473 16.6446 991.016 21.6286 986.992L23.3301 984.537C50.0615 946.092 80.315 909.016 118.219 881.175C118.078 877.026 119.996 872.665 123.794 869.916L282.202 755.28V755.28C323.074 727.153 361.063 694.097 405.365 671.383C450.665 649.573 501.786 648.715 548.209 630.512C549.193 617.393 576.776 614.044 575.905 616.07C605.008 598.504 619.99 577.603 624.611 558.394C629.231 539.185 623.489 521.667 646.159 515.696ZM1037.89 927.266C1086.87 853.565 1133.56 935.109 1153.95 984.256C1178.05 1051.51 1128.15 1134.25 1095.92 1192.23C1084.05 1208.33 1068.43 1242.3 1047.51 1244.76C994.787 1244.54 941.994 1240.83 889.242 1239.73C855.18 1231.28 902.97 1180.09 935.982 1198.79C945.984 1202.53 950.981 1213.88 960.734 1217.53C964.288 1218.28 964.533 1216.7 965.978 1213.16L966.183 1212.67C968.76 1206.54 971.259 1200.39 973.797 1194.25C995.274 1141.36 1017.98 1088.93 1040.56 1036.53C1045.38 1025.16 1038.61 1015.78 1029.82 1009.01C1023.09 1003.47 994.145 989.94 1021.42 995.895C1010.91 971.522 1023.53 946.783 1037.89 927.266ZM916.28 826.376C920.996 825.787 927.053 830.54 927.779 835.144C933.795 873.31 927.092 911.043 919.057 948.376L917.578 955.213C914.615 968.829 911.303 982.714 903.911 994.649C896.368 1006.83 884.957 1016.01 871.857 1021.59C829.832 1038.34 777.568 1021.77 746.653 990.465C726.875 963.375 744.262 929.343 747.581 899.652C744.444 891.651 743.288 882.397 741.473 874.148L741.252 873.163L734.203 842.391C732.649 835.604 737.595 826.316 745.723 827.248C802.395 833.748 859.677 833.456 916.28 826.376Z" fill="white"/>
<path fill-rule="evenodd" clip-rule="evenodd" d="M1114.2 917.624C1114.03 916.865 1114.94 916.284 1115.53 916.855C1125.5 926.464 1132.54 938.744 1140.27 950.124C1147.63 960.964 1155.64 971.384 1161.13 983.345C1166.23 994.464 1169.52 1005.74 1170.5 1017.96C1171.48 1030.09 1170.21 1042.25 1168.07 1054.2C1163.86 1077.74 1154.86 1100.03 1144.98 1121.68C1135.37 1142.73 1124.52 1163.18 1113.06 1183.26L1108.95 1190.42C1103.94 1199.15 1098.87 1207.86 1093.45 1216.31C1086.7 1226.83 1080.54 1237.69 1071.64 1246.47C1065.32 1252.72 1053.41 1246.47 1056.29 1237.54C1057.54 1233.65 1058.52 1229.99 1060.46 1226.38C1061.93 1223.63 1063.59 1220.96 1065.15 1218.25C1068.27 1212.83 1071.36 1207.39 1074.48 1201.97C1081.03 1190.58 1087.93 1179.4 1094.42 1167.97C1105.68 1148.15 1116.31 1127.96 1125.71 1107.18L1126.82 1104.73C1135.47 1085.49 1143.66 1065.56 1147.46 1044.74C1151.46 1022.81 1147.88 1002.14 1140.09 981.534C1136.06 970.874 1131.53 960.454 1126.82 950.074L1125.91 948.091C1121.37 938.184 1116.54 928.33 1114.2 917.624ZM630.05 538.303C630.14 537.914 630.8 537.884 630.86 538.303C633.66 556.925 627.43 576.624 617.28 592.114C611.74 600.574 604.91 608.214 596.86 614.354L596.233 614.827C588.009 620.975 576.898 626.912 566.69 622.925C566.37 622.803 566.07 622.664 565.79 622.505C566.94 624.284 568 626.154 569.08 628.024C572.29 633.594 575.17 639.364 578.3 644.984C583.9 655.034 590.57 664.024 599 671.894C632.709 703.357 680.042 710.836 724.494 710.478L727.634 710.448C747.159 710.31 772.696 711.307 787.77 697.175C795.87 689.585 800.33 678.794 804.36 668.664C808.32 658.734 811.03 648.484 814.32 638.384C807.45 633.675 801.15 627.925 796.2 621.204C791.04 614.204 787.14 606.324 784.89 597.914L784.558 596.658C782.818 589.951 781.068 581.08 783.87 574.744C784.19 574.014 785.39 574.064 785.73 574.744C787.24 577.774 787.53 581.194 788.46 584.434C789.54 588.204 790.76 591.954 792.37 595.524C795.48 602.444 799.59 609.024 804.52 614.784C808.59 619.553 813 623.934 818.04 627.614C821.01 622.484 827.9 621.794 833.67 623.484C841.404 625.744 849.033 628.645 856.49 631.709L857.98 632.324C865.35 635.384 873.68 638.194 880.58 642.364C884.77 644.364 888.79 646.374 892.57 648.154C911.404 657.002 929.96 666.39 948.433 675.961L952.39 678.014C960.13 682.044 967.8 686.114 974.53 691.734C981.38 697.454 986.7 705.274 991.7 712.604C1003.13 729.364 1013.9 746.604 1025.2 763.454C1048.02 797.454 1070.84 831.454 1093.79 865.374C1099.34 873.585 1105.6 881.594 1110.58 890.154C1115.35 898.335 1115.22 906.734 1114.29 915.864L1114.12 917.541C1112.33 934.289 1109.27 950.373 1099.87 964.734C1085.08 987.314 1061.78 1001.37 1037.13 1011.05C1040.14 1013.29 1042.97 1015.71 1046.56 1017.26C1052.08 1019.61 1057.97 1020.84 1063.94 1021.32C1070.31 1021.84 1077.49 1020.24 1082.65 1024.57C1084.72 1026.3 1084.78 1030.46 1082.65 1032.19C1077.69 1036.24 1071.28 1035.08 1065.23 1034.4L1064.87 1034.36C1059.26 1033.74 1053.73 1032.7 1048.46 1030.64C1047.16 1030.13 1045.87 1029.56 1044.62 1028.93C1044.66 1029.04 1044.68 1029.18 1044.66 1029.31C1043.76 1036.2 1041.81 1042.72 1039.75 1049.3L1038.44 1053.47C1035.78 1061.99 1033.1 1070.49 1030.34 1078.99C1025.09 1095.18 1019.37 1111.2 1013.63 1127.21L1008.67 1141.03C1003.58 1155.2 998.425 1169.35 992.73 1183.28C989.21 1191.88 985.67 1200.48 982.14 1209.07C978.69 1217.46 975.82 1226.52 971.54 1234.51C968.02 1241.09 958.42 1236.38 959.96 1229.62C961.98 1220.76 965.79 1211.95 968.7 1203.32C971.66 1194.56 974.56 1185.79 977.57 1177.05C982.804 1161.87 988.602 1146.89 994.43 1131.92L1000.21 1117.08C1005.87 1102.55 1011.6 1088.02 1017.73 1073.68L1018.4 1072.1C1024.76 1057.09 1031.34 1040.22 1042.9 1028.59C1043.05 1028.43 1043.26 1028.34 1043.47 1028.32C1040.63 1026.78 1037.97 1024.91 1035.63 1022.7L1035.52 1022.59C1034.59 1021.61 1030.77 1016.78 1029.54 1013.89C1027.94 1014.46 1026.34 1015.01 1024.74 1015.55C1021.95 1016.49 1019.64 1015.81 1018.01 1014.32L1014.9 1016.25C1011.59 1018.27 1008.02 1020.2 1004.35 1020.29C999.73 1020.41 996.1 1017.86 993.63 1014.1C991.41 1010.74 990.09 1007.11 987.28 1004.1C984.517 1001.15 981.319 998.649 978.051 996.265L974.199 993.462C967.135 988.306 960.287 983.095 954.6 976.284C951.74 972.844 947.91 968.764 946.17 964.633C945.83 963.835 945.62 963.085 945.58 962.354C945.2 964.934 944.81 967.524 944.42 970.104C938.96 1006.41 934.55 1042.97 933.14 1079.69C932.45 1097.8 932.14 1115.93 932.95 1134.05C933.35 1143.1 934.01 1152.14 934.92 1161.16C935.37 1165.68 935.84 1170.19 936.39 1174.69L936.517 1175.74C936.676 1177.12 936.78 1178.45 936.66 1179.71C941.06 1181.88 943.59 1187.36 945.35 1191.64C946.69 1194.9 945.65 1198.07 943.49 1200.36C946.07 1202.71 948.37 1205.47 950.3 1208.63C950.69 1209.27 949.85 1209.77 949.35 1209.37C946.18 1206.85 942.77 1204.78 939.21 1203.19C937.34 1203.9 935.3 1204.09 933.42 1203.57C931.38 1203.01 929.62 1201.65 928.35 1199.93C918.24 1198.26 907.73 1200.29 898.63 1206.62C896.74 1207.94 895.03 1209.43 893.4 1211.05C893.12 1211.34 892.83 1211.69 892.54 1212.04L894.525 1212.81C895.347 1213.12 896.023 1213.36 896.28 1213.41C898.013 1213.77 899.773 1213.96 901.533 1214.11L904.17 1214.32C914.3 1215.16 924.4 1215.44 933.82 1219.68C935.8 1220.57 935.11 1223.62 933.24 1224.13C926.361 1226 919.535 1225.86 912.533 1225.36L911.03 1225.24C904.52 1224.74 897.53 1224.77 891.18 1222.97C892.7 1227.13 890.63 1232.56 884.28 1233.41C865.21 1235.95 846.02 1234.76 826.93 1233.07C807.65 1231.37 788.38 1229.76 769.05 1228.76C706.523 1225.47 643.901 1226.1 581.319 1226.99L545.953 1227.5C517.749 1227.9 489.541 1228.21 461.338 1227.99L448.137 1227.87C442.557 1227.82 436.975 1227.75 431.402 1227.58L428.06 1227.47C421.42 1227.23 412.63 1228.23 406.86 1224.3C402.1 1221.06 401.04 1215.12 403.91 1210.34C404.74 1208.95 405.88 1207.72 407.07 1206.52C409.51 1185.68 410.88 1164.72 412.28 1143.78C417.14 1070.51 414.3 997.604 403.09 925.064C373.01 934.255 343.39 945.784 314.53 958.154C298.92 964.844 283.39 971.784 268.04 979.064C254.03 985.714 239.96 994.024 224.99 998.344C223.629 999.552 221.726 1000.13 220.039 999.591L219.82 999.514H219.81C218.27 999.874 216.56 999.654 214.88 998.644C214.54 998.438 214.2 998.231 213.86 998.019L213.35 997.694C208.08 994.374 202.78 990.284 199.05 985.284C194.52 989.484 189.65 993.335 184.86 997.234C179.66 1001.47 174.48 1005.73 169.34 1010.03C167.3 1011.74 165.05 1013.37 163.25 1015.34L162.988 1015.63C162.946 1015.68 162.906 1015.73 162.87 1015.77C170.66 1020.81 177.48 1028.46 183.59 1035.11C190.151 1042.25 196.485 1049.62 202.767 1057.01L208.849 1064.18C251.855 1114.96 295.302 1167.59 350.98 1204.91C359.78 1210.81 351.39 1225.18 342.65 1219.15C326.11 1207.76 310.46 1195.11 295.43 1181.8C269.09 1158.49 245.39 1132.34 223.2 1105.09C211.97 1091.3 201.07 1077.18 190.39 1062.95L186.765 1058.13C181.935 1051.7 177.13 1045.24 172.53 1038.64L171.567 1037.26C167.532 1031.44 163.242 1024.9 160.64 1018.19C159.64 1019.2 158.51 1020.05 156.86 1020.69C154.04 1021.79 150.58 1019.48 149.89 1016.73C148.21 1010.06 154.01 1006.09 158.73 1002.55C164.46 998.274 170.3 994.144 176.15 990.034L178.239 988.557C185.555 983.369 192.909 978.044 200.88 973.944C201.12 973.624 201.41 973.324 201.74 973.064C202.12 972.764 202.49 972.474 202.87 972.184C193.35 956.744 182.91 941.904 171.26 927.883C162.5 917.335 153.2 907.264 143.36 897.724L138.939 893.444C132.253 886.987 125.301 880.437 117.88 874.824L115.557 877.458C112.454 880.967 109.322 884.448 106.01 887.744C99.4897 894.224 93.0597 900.835 86.6597 907.444C76.0311 918.441 65.7626 929.777 55.5265 941.128L50.4097 946.803C39.7497 958.633 28.3297 970.244 18.6397 982.883L18.1558 983.523C13.9253 989.197 10.9139 995.476 12.8797 1002.68C14.7765 1009.63 19.2862 1015.79 23.1732 1021.79L23.5597 1022.39C39.4297 1047.11 56.4297 1071.2 74.6397 1094.26C111.11 1140.43 152.71 1184.18 202.35 1216.28C209.23 1220.73 202.8 1231.79 195.91 1227.29C166.92 1208.34 140.29 1185.59 115.79 1161.14C93.2997 1138.71 72.9197 1114.01 53.8197 1088.66C44.5097 1076.29 35.5897 1063.66 27.0397 1050.76C18.7497 1038.22 9.1597 1025.34 3.1497 1011.51C-5.30004e-05 1004.24 -1.1603 996.374 1.4197 988.714C3.78576 981.674 8.46499 975.829 13.3329 970.329L13.7897 969.814C24.9797 957.244 36.3697 944.824 47.8597 932.524C59.3897 920.184 71.4497 908.284 83.7597 896.734C93.4297 887.644 103.51 879.633 114.29 872.214C113.32 871.524 112.35 870.864 111.36 870.224C108.35 868.264 107.59 864.074 110.23 861.414C117.44 854.133 125.75 847.803 133.57 841.175C140.92 834.944 148.27 828.704 155.62 822.464C170.58 809.784 185.54 797.094 200.5 784.404C227.37 761.614 254.09 738.664 280.87 715.774C292.036 706.233 303.307 696.809 314.549 687.359L334.522 670.55V670.55L344.291 662.349C349.296 658.157 354.408 654.011 360.1 650.814C373.492 643.291 389.593 640.037 404.348 636.051L405.33 635.784C421.88 631.255 438.52 626.994 455.25 623.194C472 619.394 488.82 615.934 505.71 612.803C520.89 609.984 536.43 607.564 551.91 607.204C555.75 605.744 560.57 605.234 564.35 606.794C565.91 607.444 567.54 608.394 568.99 609.594C576.56 606.934 584.03 605.664 591.1 601.164C598.16 596.675 604.41 590.774 609.67 584.274C620.54 570.814 626.23 554.914 630.05 538.303ZM804.06 994.094C798.06 993.675 792.66 996.154 787.3 998.794C790.32 1000.1 793.34 1001.4 796.36 1002.69L816.46 1011.27V1011.27C823.1 1014.1 830.13 1016.56 836.44 1020.05C836.89 1020.3 837.25 1020.6 837.52 1020.95C844.08 1016.76 851.02 1013.01 857.67 1009.01C859.19 1008.1 860.72 1007.19 862.25 1006.28C854.33 1008.93 846.21 1010.26 837.61 1007.77C826.14 1004.46 816.18 994.944 804.06 994.094ZM820.5 973.974L819.422 973.242C813.602 969.25 806.658 964.118 799.59 967.704C796.26 969.394 793.53 972.124 790.25 973.944C786.95 975.784 783.32 977.194 779.64 978.044C773.53 979.454 766.53 979.664 759.96 978.303L760.06 987.184V987.184C765.03 989.234 769.97 991.335 774.91 993.454C778.117 992.358 781.204 991.041 784.449 989.596L786.64 988.614C792.89 985.803 799.2 983.925 806.11 984.814C819.12 986.484 828.95 996.154 841.39 999.374C856.64 1003.34 870.4 991.954 884.81 989.144C887.186 988.676 889.635 988.403 892.069 988.36L892.88 988.354L893.24 988.144C896.34 986.324 900.98 984.585 903.14 981.524C905.49 978.204 905.69 972.644 906.46 968.744C906.54 968.354 906.62 967.954 906.69 967.564C905.33 967.564 903.95 967.633 902.55 967.894C898.15 968.704 894.01 970.264 889.91 972.005C882.16 975.294 874.58 979.044 866.42 981.234C858.43 983.383 850.08 984.404 841.85 983.214C833.82 982.053 827.15 978.434 820.5 973.974ZM821.752 942.753L820.547 941.977C817.369 939.949 813.724 937.848 809.83 938.594C806.35 939.264 803.36 942.034 800.33 943.744C793.68 947.494 786.22 949.544 778.61 950.064C772.28 950.494 765.71 949.724 759.62 947.844L759.83 967.505V967.505C762.06 968.214 764.37 968.724 766.8 968.904C774.18 969.454 781.38 967.684 787.57 963.614L790.701 961.535C796.06 958.015 801.088 955.22 808.18 956.505C815.2 957.784 821.09 962.284 826.83 966.204L827.771 966.836C834.363 971.188 841.045 973.997 849.13 974.064C857.86 974.133 866.49 971.704 874.62 968.714C882.69 965.755 890.36 962.204 898.99 961.114C901.63 960.784 904.85 960.684 907.88 961.204C908.28 958.974 908.66 956.755 909.02 954.524C909.8 949.734 910.47 944.954 911.05 940.164C895.74 936.044 881.6 949.374 867.38 953.484C859.13 955.864 850.15 955.835 841.9 953.534C834.266 951.404 828.265 946.982 821.752 942.753ZM821.79 909.644C818.52 909.014 815.29 910.524 812.51 912.074C805.42 916.005 799.3 921.474 791.27 923.544C780.94 926.204 769.64 923.914 759.38 919.564C759.42 925.633 759.47 931.704 759.52 937.774C761.45 938.505 763.43 939.094 765.45 939.564C772.63 941.204 780.24 940.984 787.31 938.914C794.52 936.803 800.05 931.104 807.28 929.324C814.673 927.498 821.642 931.051 827.6 935.089L829.393 936.313C836.203 940.934 842.808 944.95 851.33 945.734C860.34 946.564 868.17 943.744 876.22 940.005L878.094 939.138C888.285 934.457 901.516 929.127 911.69 934.454C912.49 926.894 913.07 919.335 913.46 911.764C912.06 911.244 910.61 910.864 908.94 910.854C904.95 910.835 900.76 912.094 897.04 913.404C888.91 916.274 881.34 920.553 873.29 923.624C865.66 926.544 857.21 928.064 849.07 926.755C841.53 925.544 835.87 921.604 830.66 916.204L829.903 915.406C827.618 912.975 825.174 910.301 821.79 909.644ZM827.76 881.574C823.99 879.585 819.4 877.734 815.04 878.314C810.88 878.863 808.107 881.685 805.546 884.702L804.158 886.353C799.576 891.775 795.065 896.333 788 898.564C780.68 900.864 772.92 899.964 766.11 896.594C763.69 895.394 761.44 893.904 759.18 892.434L759.3 908.383V908.383C763.82 910.633 768.42 912.664 773.47 913.894C782.79 916.164 790.71 914.484 798.68 909.344L799.516 908.8C805.52 904.857 811.675 900.164 819.09 899.724C826.326 899.291 831.757 903.303 836.522 908.213L837.08 908.794C843.09 915.133 849.16 918.224 858.1 917.494C866.767 916.786 874.879 912.959 882.818 909.662L883.54 909.364C890.8 906.383 899.17 903.314 907.14 904.454C909.05 904.724 911.52 905.314 913.72 906.344C914.04 898.883 914.19 891.414 914.22 883.934C909.69 880.005 902.64 879.354 896.97 880.964C888.09 883.484 880.82 889.984 872.34 893.514C864.82 896.644 856.98 897.344 849.31 894.383C841.39 891.324 835.18 885.494 827.76 881.574ZM913.72 850.154C900.45 850.614 887.47 859.244 874.8 862.534C860.646 866.207 849.095 861.2 836.487 855.642L834.86 854.925C828.39 852.085 821.44 849.534 814.27 850.694C807.28 851.835 801.1 855.704 795.09 859.204L793.938 859.868C782.989 866.1 771.841 870.367 759.06 869.303C759.13 873.314 759.1 877.314 759.11 881.234C761.21 882.434 763.23 883.794 765.15 885.034L765.839 885.471C771.932 889.281 778.214 891.786 785.48 889.434C792.5 887.154 795.8 881.044 800.62 876.014C805.05 871.394 810.83 868.585 817.31 868.854C824.28 869.133 830.87 872.204 836.63 875.954C842.39 879.704 847.96 884.553 854.7 886.434C869.82 890.633 882.77 874.644 897.07 872.154C903.07 871.104 909.69 872.434 914.22 876.053C914.17 867.434 913.98 858.794 913.72 850.154ZM799.5 846.534C797.63 846.604 795.76 846.684 793.89 846.764C786.97 847.064 780.05 847.404 773.13 847.794C768.34 848.053 762.45 849.524 757.75 848.064C757.63 848.544 757.47 849.005 757.26 849.454C757.97 852.994 758.41 856.654 758.68 860.354C763.02 860.824 767.43 860.664 771.71 859.774C781.98 857.644 790.32 851.164 799.5 846.534ZM913.52 843.564C888.25 845.305 862.787 844.706 837.476 845.253L834.44 845.324C834.32 845.324 834.2 845.335 834.08 845.335C836.982 846.46 839.862 847.748 842.732 849.06L845.6 850.374C852.38 853.494 859.28 856.044 866.87 855.494C875 854.904 882.66 851.585 890.26 848.904C897.51 846.344 905.86 844.624 913.59 845.744C913.57 845.014 913.55 844.294 913.52 843.564Z" fill="black"/>
<path fill-rule="evenodd" clip-rule="evenodd" d="M911.837 351.185C909.215 329.334 912.608 283.662 912.835 280.887C914.272 263.346 905.608 194.076 889.229 200.459C861.754 179.826 825.159 175.269 790.94 173.093C719.862 168.572 644.249 178.951 589.364 224.327C562.222 247.892 535.797 282.166 537.921 317.853C513.261 351.679 478.495 398.08 509.221 437.626C519.665 450.261 536.265 454.966 549.385 464.535C575.776 484.727 592.333 513.707 618.975 533.78C689.556 593.946 809.404 606.515 878.751 538.081C932.375 488.518 923.704 414.37 914.272 351.185C907.931 308.705 916.951 393.813 911.837 351.185Z" fill="white"/>
<path fill-rule="evenodd" clip-rule="evenodd" d="M695.99 80.4311C714.999 76.7922 734.519 74.528 753.931 75.2096L755.428 75.2647C770.034 75.8185 788.531 77.0435 801.273 85.1004C802.006 84.4027 803.184 84.0446 804.254 84.5286C819.395 91.3847 836.049 96.3417 851.992 101.268C867.862 106.169 884.326 109.405 900.96 110.709C907.218 111.2 912.573 117.61 908.611 123.36C907.668 124.73 906.75 126.114 905.835 127.501C907.365 127.35 908.894 127.194 910.424 127.047C915.457 126.566 920.485 131.662 920.187 136.311C920 139.234 919.668 142.124 919.176 144.978C921.093 144.94 922.999 145.213 924.84 145.951C934.163 149.686 933.514 160.22 932.816 168.235C931.849 179.357 927.464 191.138 919.322 199.462C925.401 205.452 929.705 212.605 932.272 221.1C934.134 227.304 935.17 233.911 934.659 240.369L934.496 242.302C933.863 249.31 932.606 257.068 927.291 262.11C924.563 264.709 921.202 265.656 917.998 265.356C919.936 281.506 921.178 297.748 922.347 313.932L922.895 321.668C925.503 359.073 927.463 396.722 926.95 434.189C926.474 469.203 919.181 503.189 896.543 531.619C875.925 557.507 846.322 576.591 812.834 583.845C794.787 587.762 776.362 588.039 758.096 585.544C749.241 584.331 740.329 582.471 731.925 579.536C722.622 576.279 715.937 571.485 709.678 564.299C706.717 560.891 708.142 553.637 714.037 554.318C722.953 555.344 731.092 556.58 739.639 559.081L740.863 559.448C749.377 562.035 758.193 563.964 767.094 564.785C785.325 566.46 803.834 564.773 821.297 559.528C849.732 550.98 874.221 531.931 889.918 507.995C908.55 479.623 910.657 447.416 910.387 414.793C910.099 378.995 908.872 343.176 906.868 307.416L906.527 301.456C905.468 283.054 904.445 264.64 903.545 246.226C903.265 240.45 902.839 234.628 902.07 228.863C895.045 224.959 888.749 219.575 884.645 212.933C876.401 216.167 867.731 218.501 859.753 220.361C841.275 224.672 822.09 225.719 803.282 223.019C798.209 225.007 793.034 226.755 787.781 228.259C786.361 228.856 784.941 229.443 783.523 230.018C770.857 235.159 758.009 239.514 744.639 242.702L741.355 243.479C734.319 245.125 726.676 246.745 719.188 247.254C717.958 247.704 716.631 248.086 715.181 248.421C708.362 249.992 701.286 250.489 694.297 249.934C687.489 249.391 682.569 242.864 686.32 236.753C689.06 232.294 691.825 227.847 694.614 223.411C684.908 227.246 674.886 230.434 664.779 233.137C654.574 235.864 644.223 238.163 633.859 240.277C628.318 241.397 622.754 242.391 617.225 243.511C613.268 244.308 607.191 244.724 603.963 247.196C600.396 249.911 599.385 256.241 598.032 260.146C596.254 265.217 594.586 270.312 593.064 275.464C590.033 285.745 587.549 296.177 585.625 306.712C583.7 317.259 582.408 327.91 581.69 338.596C580.973 349.27 581.288 360.013 580.132 370.641C579.51 376.279 573.13 379.178 568.418 375.239C567.865 374.777 567.308 374.31 566.756 373.837L565.933 373.125C561.901 369.659 557.992 365.986 554.767 361.85C554.182 361.088 553.622 360.291 553.098 359.482C553.013 359.482 552.94 359.459 552.855 359.401L551.96 358.763C542.111 351.808 525.657 342.742 516.054 354.295C512.994 357.975 511.427 362.662 510.127 367.183L507.845 375.274C506.369 380.557 504.98 385.868 504.167 391.273C502.329 403.38 503.254 417.334 512.035 427.038C515.542 430.92 520.377 433.692 525.77 434.42C528.78 434.813 531.751 434.327 534.734 433.969C537.767 433.611 540.688 434.189 543.721 433.912C548.544 433.461 550.65 438.937 548.848 442.379C547.874 444.228 546.728 445.822 545.426 447.173C546.472 448.028 547.472 448.952 548.434 449.923C551.284 450.789 553.84 452.649 555.753 455.11C557.299 457.097 558.102 459.257 558.237 461.533C558.406 462.099 558.553 462.676 558.688 463.265L561.3 467.288C561.875 468.17 562.447 469.041 563.022 469.896C569.671 479.831 577.051 488.241 586.221 496.165C595.05 503.79 604.633 510.617 612.927 518.796L613.904 519.767C621.636 527.496 629.787 536.853 626.76 548.092C625.981 550.98 621.73 553.059 618.955 551.107C610.028 544.823 605.534 534.865 597.96 527.24C590.166 519.385 581.532 512.327 573.715 504.495C566.322 497.101 560.489 488.726 556.094 479.507C554.339 481.344 551.783 482.65 548.239 483.158C542.151 484.024 536.475 480.64 533.821 475.638C532.115 476.354 530.375 477.001 528.62 477.509C519.389 480.189 513.582 470.451 517.065 463.254C518.927 459.395 521.253 456.045 524.14 453.227C515.115 452.048 505.933 447.624 500.003 442.102C485.123 428.228 483.077 407.377 486.426 388.836C488.204 379.005 491.271 369.059 495.255 359.828C495.948 358.223 496.692 356.605 497.506 355.011C497.056 355 496.593 354.815 496.301 354.457C493.609 350.968 490.335 348.115 488.337 344.21C486.498 340.629 484.453 337.002 483.003 333.27C480.02 325.634 478.559 317.017 477.585 308.942C475.576 292.411 476.354 275.984 479.022 259.557C483.563 231.578 494.532 204.803 510.693 181.308C509.813 180.869 508.97 180.34 508.184 179.714L507.796 179.393L507.166 178.852C502.554 174.893 502.952 167.473 507.166 163.464L508.496 162.198C510.181 160.61 511.634 159.352 514.356 157.623C514.758 157.368 515.169 157.127 515.584 156.903C514.159 154.406 513.665 151.485 514.657 148.263C518.116 137.04 535.14 137.437 545.93 142.332C557.868 132.225 571.105 123.451 585.453 116.346C619.624 99.4342 658.263 87.6396 695.99 80.4311ZM519.354 376.048C525.735 374.072 534.211 378.219 539.947 380.715C547.217 383.88 553.403 388.558 559.394 393.503C562.378 395.975 562.912 400.018 562.171 403.472C562.097 403.819 562.025 404.177 561.938 404.535C561.147 408.22 556.811 411.119 552.976 411.016C544.951 410.808 541.128 404.234 536.585 398.666C536.05 399.567 535.38 400.399 534.551 401.023L533.991 401.439C532.106 402.801 530.027 403.889 527.537 403.784C525.771 403.703 524.079 403.276 522.519 402.502C518.623 400.549 516.907 395.767 517.965 391.874C518.623 389.425 520.133 387.507 522.105 386.179L521.37 385.702C519.797 384.663 518.362 383.568 517.243 381.952L516.991 381.569H517.088C515.87 379.582 516.663 376.879 519.354 376.048Z" fill="black"/>
<path fill-rule="evenodd" clip-rule="evenodd" d="M812.266 500.683C803.727 503.159 794.561 503.38 785.857 500.823C777.962 498.504 769.856 493.399 764.046 486.645C758.884 480.645 755.541 473.354 755.672 465.571C755.687 464.682 756.005 463.94 756.493 463.364C757.019 462.744 757.753 462.319 758.54 462.134C759.349 461.944 760.204 462.011 760.933 462.342C761.592 462.642 762.157 463.151 762.51 463.896C763.403 465.07 764.292 466.227 765.185 467.352C772.365 476.227 779.318 482.859 790.115 485.238C795.973 486.529 801.823 485.957 807.191 483.987C812.937 481.879 818.132 478.172 822.202 473.428C824.042 471.284 826.213 470.409 828.337 470.394C830.743 470.377 833.122 471.497 834.914 473.286C836.675 475.044 837.855 477.434 837.962 479.934C838.055 482.128 837.34 484.42 835.438 486.465C829.173 493.201 821.052 498.135 812.266 500.683ZM812.003 389.525C820.756 394.851 834.093 407.271 824.677 420.476C813.593 432.119 797.634 418.769 789.77 412.732C782.478 408.053 774.285 420.087 781.05 425.551C837.877 467.668 860.939 390.918 816.43 383.263C811.529 382.419 809.709 387.877 812.003 389.525ZM730.12 366.088C727.306 364.287 723.997 363.669 720.329 365.339C717.463 366.644 712.436 370.994 708.937 376.712C706.544 380.624 704.847 385.213 705.2 389.994C705.282 391.104 704.872 391.922 704.226 392.528C703.715 393.006 702.978 393.357 702.112 393.467C701.377 393.56 700.554 393.476 699.884 393.267C698.611 392.869 697.938 392.042 697.684 391.367C695.234 384.855 696.29 377.588 699.035 371.031C702.74 362.183 709.468 354.771 713.877 352.382C721.42 348.291 730.319 348.103 737.873 352.27C744.304 355.817 748.325 361.543 752.324 367.38C753.174 368.621 754.018 369.853 754.89 371.063C756.637 373.487 756.811 375.892 756.135 377.954C755.385 380.238 753.473 382.166 751.082 383.175C748.873 384.108 746.308 384.239 744.039 383.281C742.122 382.471 740.363 380.893 739.25 378.216C737.375 373.708 734.251 368.733 730.12 366.088V366.088ZM873.006 376.119C871.079 377.124 869.572 377.427 867.434 376.786C866.252 376.431 865.084 375.75 864.169 374.834C863.263 373.927 862.609 372.798 862.355 371.546C861.73 368.457 860.041 365.565 857.635 363.68C855.578 362.069 852.982 361.215 850.103 361.696C846.996 362.216 844.036 364.21 841.997 366.562C841.315 367.349 840.781 368.243 840.244 369.131C839.24 370.791 838.263 372.334 836.878 373.553C836.353 374.017 835.561 374.339 834.795 374.339C834.484 374.339 834.167 374.288 833.866 374.194C830.774 371.087 830.179 368.729 830.279 366.391C830.383 363.94 831.349 361.457 832.909 359.141C836.569 353.708 843.519 349.254 848.208 348.245C854.631 346.863 861.009 348.522 866.123 352.113C871.384 355.807 875.283 361.544 876.499 368.009C876.791 369.566 876.667 371.246 876.075 372.703C875.496 374.127 874.487 375.347 873.006 376.119ZM744.284 308.163C740.43 311.923 735.868 312.505 731.253 313.023C728.689 313.313 726.642 313.547 724.628 314.002C719.091 315.254 713.618 317.138 708.625 319.852C703.406 322.689 697.718 326.11 693.626 330.493C692.653 331.536 691.736 332.63 690.817 333.727C689.98 334.727 689.173 335.69 688.322 336.618C687.346 337.685 686.419 338.802 685.496 339.917C684.926 340.858 684.813 341.089 684.698 341.33C684.525 341.692 684.324 342.097 684.095 342.531C683.78 343.126 683.412 343.777 683.026 344.368C682.384 345.447 682.04 345.745 681.742 345.878C681.248 346.098 680.78 346.206 680.326 346.148C679.9 346.093 679.498 345.888 679.102 345.552C677.123 343.879 676.539 341.132 676.599 338.216C676.69 333.792 678.32 328.894 679.823 325.882C683.317 318.885 688.163 311.612 693.99 306.389C700.639 300.428 707.913 295.916 716.269 292.806C721.461 290.873 727.473 289.099 733.129 289.323C737.201 289.484 741.088 290.696 744.298 293.722C746.27 295.579 747.216 298.221 747.216 300.861C747.216 303.554 746.233 306.263 744.284 308.163ZM880.844 342.587C880.599 342.989 880.26 343.266 879.882 343.433C879.487 343.607 879.045 343.657 878.621 343.586C878.199 343.515 877.798 343.323 877.48 343.03C877.174 342.75 876.942 342.378 876.838 341.922C874.279 330.671 869.311 322.3 858.706 316.903C853.489 314.247 847.49 312.56 841.811 311.215C840.161 310.824 838.417 310.571 836.661 310.314C831.158 309.509 825.614 308.588 822.026 304.135C819.865 301.452 818.957 298.021 819.47 294.884C819.953 291.93 821.678 289.221 824.812 287.598C832.617 283.558 842.315 287.522 850.195 290.899C850.78 291.149 851.354 291.395 851.915 291.632C859.622 294.889 866.651 299.187 872.429 305.335C877.014 310.212 881.262 317.422 882.972 324.839C884.396 331.009 884.061 337.309 880.844 342.587Z" fill="black"/>
</svg>
